%TF.GenerationSoftware,KiCad,Pcbnew,7.0.1*%
%TF.CreationDate,2023-06-12T18:20:00+05:30*%
%TF.ProjectId,type-C-Breakout,74797065-2d43-42d4-9272-65616b6f7574,rev?*%
%TF.SameCoordinates,Original*%
%TF.FileFunction,Soldermask,Top*%
%TF.FilePolarity,Negative*%
%FSLAX46Y46*%
G04 Gerber Fmt 4.6, Leading zero omitted, Abs format (unit mm)*
G04 Created by KiCad (PCBNEW 7.0.1) date 2023-06-12 18:20:00*
%MOMM*%
%LPD*%
G01*
G04 APERTURE LIST*
G04 Aperture macros list*
%AMRoundRect*
0 Rectangle with rounded corners*
0 $1 Rounding radius*
0 $2 $3 $4 $5 $6 $7 $8 $9 X,Y pos of 4 corners*
0 Add a 4 corners polygon primitive as box body*
4,1,4,$2,$3,$4,$5,$6,$7,$8,$9,$2,$3,0*
0 Add four circle primitives for the rounded corners*
1,1,$1+$1,$2,$3*
1,1,$1+$1,$4,$5*
1,1,$1+$1,$6,$7*
1,1,$1+$1,$8,$9*
0 Add four rect primitives between the rounded corners*
20,1,$1+$1,$2,$3,$4,$5,0*
20,1,$1+$1,$4,$5,$6,$7,0*
20,1,$1+$1,$6,$7,$8,$9,0*
20,1,$1+$1,$8,$9,$2,$3,0*%
G04 Aperture macros list end*
%ADD10R,1.600000X3.200000*%
%ADD11O,1.600000X1.700000*%
%ADD12R,3.200000X1.600000*%
%ADD13R,0.300000X1.200000*%
%ADD14C,1.400000*%
%ADD15RoundRect,0.250000X-0.350000X-0.450000X0.350000X-0.450000X0.350000X0.450000X-0.350000X0.450000X0*%
%ADD16RoundRect,0.250000X0.350000X0.450000X-0.350000X0.450000X-0.350000X-0.450000X0.350000X-0.450000X0*%
G04 APERTURE END LIST*
D10*
%TO.C,J2*%
X129720000Y-99542500D03*
D11*
X129720000Y-97932500D03*
D10*
X132260000Y-99542500D03*
D11*
X132260000Y-97932500D03*
D10*
X134800000Y-99542500D03*
D11*
X134800000Y-97932500D03*
D10*
X137340000Y-99542500D03*
D11*
X137340000Y-97932500D03*
%TD*%
D12*
%TO.C,*%
X127166202Y-86712260D03*
%TD*%
D13*
%TO.C,J1*%
X136865000Y-91275000D03*
X136065000Y-91275000D03*
X134765000Y-91275000D03*
X133765000Y-91275000D03*
X133265000Y-91275000D03*
X132265000Y-91275000D03*
X130965000Y-91275000D03*
X130165000Y-91275000D03*
X130465000Y-91275000D03*
X131265000Y-91275000D03*
X131765000Y-91275000D03*
X132765000Y-91275000D03*
X134265000Y-91275000D03*
X135265000Y-91275000D03*
X135765000Y-91275000D03*
X136565000Y-91275000D03*
D14*
X137835000Y-90995000D03*
X137835000Y-90405000D03*
X137835000Y-87205000D03*
X137835000Y-86700000D03*
X137835000Y-86205000D03*
X129195000Y-90995000D03*
X129195000Y-90405000D03*
X129195000Y-87195000D03*
X129195000Y-86700000D03*
X129195000Y-86205000D03*
%TD*%
D15*
%TO.C,R2*%
X135690000Y-94040000D03*
X137690000Y-94040000D03*
%TD*%
D11*
%TO.C,*%
X127163303Y-96529623D03*
%TD*%
%TO.C,*%
X139866806Y-96520000D03*
%TD*%
D12*
%TO.C,*%
X139855966Y-86708435D03*
%TD*%
D16*
%TO.C,R1*%
X131340000Y-94040000D03*
X129340000Y-94040000D03*
%TD*%
M02*
