M48
; DRILL file {KiCad 7.0.1} date Mon Jun 12 18:20:05 2023
; FORMAT={-:-/ absolute / inch / decimal}
; #@! TF.CreationDate,2023-06-12T18:20:05+05:30
; #@! TF.GenerationSoftware,Kicad,Pcbnew,7.0.1
; #@! TF.FileFunction,Plated,1,2,PTH
FMAT,2
INCH
; #@! TA.AperFunction,Plated,PTH,ComponentDrill
T1C0.0315
; #@! TA.AperFunction,Plated,PTH,ComponentDrill
T2C0.0394
%
G90
G05
T1
X5.0864Y-3.3939
X5.0864Y-3.4134
X5.0864Y-3.4329
X5.0864Y-3.5593
X5.0864Y-3.5825
X5.4266Y-3.3939
X5.4266Y-3.4134
X5.4266Y-3.4333
X5.4266Y-3.5593
X5.4266Y-3.5825
T2
X5.0064Y-3.8004
X5.0065Y-3.4139
X5.1071Y-3.8556
X5.1071Y-3.919
X5.2071Y-3.8556
X5.2071Y-3.919
X5.3071Y-3.8556
X5.3071Y-3.919
X5.4071Y-3.8556
X5.4071Y-3.919
X5.5061Y-3.4137
X5.5066Y-3.8
T0
M30
