%TF.GenerationSoftware,KiCad,Pcbnew,7.0.1*%
%TF.CreationDate,2023-06-12T18:20:00+05:30*%
%TF.ProjectId,type-C-Breakout,74797065-2d43-42d4-9272-65616b6f7574,rev?*%
%TF.SameCoordinates,Original*%
%TF.FileFunction,Legend,Top*%
%TF.FilePolarity,Positive*%
%FSLAX46Y46*%
G04 Gerber Fmt 4.6, Leading zero omitted, Abs format (unit mm)*
G04 Created by KiCad (PCBNEW 7.0.1) date 2023-06-12 18:20:00*
%MOMM*%
%LPD*%
G01*
G04 APERTURE LIST*
%ADD10C,0.150000*%
%ADD11C,0.120000*%
G04 APERTURE END LIST*
D10*
X130128310Y-96334529D02*
X130128310Y-95334529D01*
X130128310Y-95334529D02*
X130509262Y-95334529D01*
X130509262Y-95334529D02*
X130604500Y-95382148D01*
X130604500Y-95382148D02*
X130652119Y-95429767D01*
X130652119Y-95429767D02*
X130699738Y-95525005D01*
X130699738Y-95525005D02*
X130699738Y-95667862D01*
X130699738Y-95667862D02*
X130652119Y-95763100D01*
X130652119Y-95763100D02*
X130604500Y-95810719D01*
X130604500Y-95810719D02*
X130509262Y-95858338D01*
X130509262Y-95858338D02*
X130128310Y-95858338D01*
X131128310Y-96334529D02*
X131128310Y-95667862D01*
X131128310Y-95858338D02*
X131175929Y-95763100D01*
X131175929Y-95763100D02*
X131223548Y-95715481D01*
X131223548Y-95715481D02*
X131318786Y-95667862D01*
X131318786Y-95667862D02*
X131414024Y-95667862D01*
X131890215Y-96334529D02*
X131794977Y-96286910D01*
X131794977Y-96286910D02*
X131747358Y-96239290D01*
X131747358Y-96239290D02*
X131699739Y-96144052D01*
X131699739Y-96144052D02*
X131699739Y-95858338D01*
X131699739Y-95858338D02*
X131747358Y-95763100D01*
X131747358Y-95763100D02*
X131794977Y-95715481D01*
X131794977Y-95715481D02*
X131890215Y-95667862D01*
X131890215Y-95667862D02*
X132033072Y-95667862D01*
X132033072Y-95667862D02*
X132128310Y-95715481D01*
X132128310Y-95715481D02*
X132175929Y-95763100D01*
X132175929Y-95763100D02*
X132223548Y-95858338D01*
X132223548Y-95858338D02*
X132223548Y-96144052D01*
X132223548Y-96144052D02*
X132175929Y-96239290D01*
X132175929Y-96239290D02*
X132128310Y-96286910D01*
X132128310Y-96286910D02*
X132033072Y-96334529D01*
X132033072Y-96334529D02*
X131890215Y-96334529D01*
X132604501Y-96286910D02*
X132699739Y-96334529D01*
X132699739Y-96334529D02*
X132890215Y-96334529D01*
X132890215Y-96334529D02*
X132985453Y-96286910D01*
X132985453Y-96286910D02*
X133033072Y-96191671D01*
X133033072Y-96191671D02*
X133033072Y-96144052D01*
X133033072Y-96144052D02*
X132985453Y-96048814D01*
X132985453Y-96048814D02*
X132890215Y-96001195D01*
X132890215Y-96001195D02*
X132747358Y-96001195D01*
X132747358Y-96001195D02*
X132652120Y-95953576D01*
X132652120Y-95953576D02*
X132604501Y-95858338D01*
X132604501Y-95858338D02*
X132604501Y-95810719D01*
X132604501Y-95810719D02*
X132652120Y-95715481D01*
X132652120Y-95715481D02*
X132747358Y-95667862D01*
X132747358Y-95667862D02*
X132890215Y-95667862D01*
X132890215Y-95667862D02*
X132985453Y-95715481D01*
X133461644Y-96334529D02*
X133461644Y-95334529D01*
X133890215Y-96334529D02*
X133890215Y-95810719D01*
X133890215Y-95810719D02*
X133842596Y-95715481D01*
X133842596Y-95715481D02*
X133747358Y-95667862D01*
X133747358Y-95667862D02*
X133604501Y-95667862D01*
X133604501Y-95667862D02*
X133509263Y-95715481D01*
X133509263Y-95715481D02*
X133461644Y-95763100D01*
X134366406Y-96334529D02*
X134366406Y-95334529D01*
X134366406Y-95334529D02*
X134747358Y-95334529D01*
X134747358Y-95334529D02*
X134842596Y-95382148D01*
X134842596Y-95382148D02*
X134890215Y-95429767D01*
X134890215Y-95429767D02*
X134937834Y-95525005D01*
X134937834Y-95525005D02*
X134937834Y-95667862D01*
X134937834Y-95667862D02*
X134890215Y-95763100D01*
X134890215Y-95763100D02*
X134842596Y-95810719D01*
X134842596Y-95810719D02*
X134747358Y-95858338D01*
X134747358Y-95858338D02*
X134366406Y-95858338D01*
X135509263Y-96334529D02*
X135414025Y-96286910D01*
X135414025Y-96286910D02*
X135366406Y-96191671D01*
X135366406Y-96191671D02*
X135366406Y-95334529D01*
X136318787Y-96334529D02*
X136318787Y-95810719D01*
X136318787Y-95810719D02*
X136271168Y-95715481D01*
X136271168Y-95715481D02*
X136175930Y-95667862D01*
X136175930Y-95667862D02*
X135985454Y-95667862D01*
X135985454Y-95667862D02*
X135890216Y-95715481D01*
X136318787Y-96286910D02*
X136223549Y-96334529D01*
X136223549Y-96334529D02*
X135985454Y-96334529D01*
X135985454Y-96334529D02*
X135890216Y-96286910D01*
X135890216Y-96286910D02*
X135842597Y-96191671D01*
X135842597Y-96191671D02*
X135842597Y-96096433D01*
X135842597Y-96096433D02*
X135890216Y-96001195D01*
X135890216Y-96001195D02*
X135985454Y-95953576D01*
X135985454Y-95953576D02*
X136223549Y-95953576D01*
X136223549Y-95953576D02*
X136318787Y-95905957D01*
X136699740Y-95667862D02*
X136937835Y-96334529D01*
X137175930Y-95667862D02*
X136937835Y-96334529D01*
X136937835Y-96334529D02*
X136842597Y-96572624D01*
X136842597Y-96572624D02*
X136794978Y-96620243D01*
X136794978Y-96620243D02*
X136699740Y-96667862D01*
%TO.C,*%
%TO.C,J1*%
X133181666Y-86927619D02*
X133181666Y-87641904D01*
X133181666Y-87641904D02*
X133134047Y-87784761D01*
X133134047Y-87784761D02*
X133038809Y-87880000D01*
X133038809Y-87880000D02*
X132895952Y-87927619D01*
X132895952Y-87927619D02*
X132800714Y-87927619D01*
X134181666Y-87927619D02*
X133610238Y-87927619D01*
X133895952Y-87927619D02*
X133895952Y-86927619D01*
X133895952Y-86927619D02*
X133800714Y-87070476D01*
X133800714Y-87070476D02*
X133705476Y-87165714D01*
X133705476Y-87165714D02*
X133610238Y-87213333D01*
%TO.C,R2*%
X138897498Y-94422885D02*
X138630831Y-94041932D01*
X138440355Y-94422885D02*
X138440355Y-93622885D01*
X138440355Y-93622885D02*
X138745117Y-93622885D01*
X138745117Y-93622885D02*
X138821307Y-93660980D01*
X138821307Y-93660980D02*
X138859402Y-93699075D01*
X138859402Y-93699075D02*
X138897498Y-93775266D01*
X138897498Y-93775266D02*
X138897498Y-93889551D01*
X138897498Y-93889551D02*
X138859402Y-93965742D01*
X138859402Y-93965742D02*
X138821307Y-94003837D01*
X138821307Y-94003837D02*
X138745117Y-94041932D01*
X138745117Y-94041932D02*
X138440355Y-94041932D01*
X139202259Y-93699075D02*
X139240355Y-93660980D01*
X139240355Y-93660980D02*
X139316545Y-93622885D01*
X139316545Y-93622885D02*
X139507021Y-93622885D01*
X139507021Y-93622885D02*
X139583212Y-93660980D01*
X139583212Y-93660980D02*
X139621307Y-93699075D01*
X139621307Y-93699075D02*
X139659402Y-93775266D01*
X139659402Y-93775266D02*
X139659402Y-93851456D01*
X139659402Y-93851456D02*
X139621307Y-93965742D01*
X139621307Y-93965742D02*
X139164164Y-94422885D01*
X139164164Y-94422885D02*
X139659402Y-94422885D01*
%TO.C,*%
%TO.C,R1*%
X127841874Y-94482931D02*
X127575207Y-94101978D01*
X127384731Y-94482931D02*
X127384731Y-93682931D01*
X127384731Y-93682931D02*
X127689493Y-93682931D01*
X127689493Y-93682931D02*
X127765683Y-93721026D01*
X127765683Y-93721026D02*
X127803778Y-93759121D01*
X127803778Y-93759121D02*
X127841874Y-93835312D01*
X127841874Y-93835312D02*
X127841874Y-93949597D01*
X127841874Y-93949597D02*
X127803778Y-94025788D01*
X127803778Y-94025788D02*
X127765683Y-94063883D01*
X127765683Y-94063883D02*
X127689493Y-94101978D01*
X127689493Y-94101978D02*
X127384731Y-94101978D01*
X128603778Y-94482931D02*
X128146635Y-94482931D01*
X128375207Y-94482931D02*
X128375207Y-93682931D01*
X128375207Y-93682931D02*
X128299016Y-93797216D01*
X128299016Y-93797216D02*
X128222826Y-93873407D01*
X128222826Y-93873407D02*
X128146635Y-93911502D01*
D11*
%TO.C,J2*%
X128390000Y-99162500D02*
X128390000Y-97232500D01*
%TO.C,J1*%
X138415000Y-89675000D02*
X138415000Y-87975000D01*
X138415000Y-84775000D02*
X138415000Y-85475000D01*
X128615000Y-89625000D02*
X128615000Y-87925000D01*
X128615000Y-84775000D02*
X128615000Y-85475000D01*
%TO.C,R2*%
X136462936Y-93305000D02*
X136917064Y-93305000D01*
X136462936Y-94775000D02*
X136917064Y-94775000D01*
%TO.C,R1*%
X130567064Y-94775000D02*
X130112936Y-94775000D01*
X130567064Y-93305000D02*
X130112936Y-93305000D01*
%TD*%
M02*
